<svg xmlns="http://www.w3.org/2000/svg" viewBox="0 0 1690 390" width="1690" height="390" font-family="Helvetica, Arial, sans-serif">
<rect width="1690" height="390" fill="white"/>
<line x1="60" y1="150" x2="1630" y2="150" stroke="#bbb" stroke-width="0.5" stroke-dasharray="3 3"/>
<line x1="60" y1="230" x2="1630" y2="230" stroke="#bbb" stroke-width="0.5" stroke-dasharray="3 3"/>
<text x="55" y="154" text-anchor="end" font-size="11" fill="#666">HIGH</text>
<text x="55" y="234" text-anchor="end" font-size="11" fill="#666">LOW</text>
<path d="M 147.0 224 l 8 12" stroke="white" stroke-width="5" fill="none"/>
<path d="M 147.0 224 l 8 12" stroke="black" stroke-width="1" fill="none"/>
<path d="M 155.0 224 l 8 12" stroke="white" stroke-width="5" fill="none"/>
<path d="M 155.0 224 l 8 12" stroke="black" stroke-width="1" fill="none"/>
<path d="M 70 150 V 150 h 30 V 230 h 110 V 150 h 54 V 230 h 54 V 150 h 72 V 230 h 14 V 150 h 10 V 230 h 14 V 150 h 10 V 230 h 14 V 150 h 24 V 230 h 14 V 150 h 24 V 230 h 14 V 150 h 10 V 230 h 14 V 150 h 24 V 230 h 14 V 150 h 24 V 230 h 14 V 150 h 24 V 230 h 14 V 150 h 10 V 230 h 14 V 150 h 10 V 230 h 14 V 150 h 10 V 230 h 14 V 150 h 10 V 230 h 14 V 150 h 10 V 230 h 14 V 150 h 10 V 230 h 14 V 150 h 10 V 230 h 14 V 150 h 10 V 230 h 14 V 150 h 10 V 230 h 14 V 150 h 10 V 230 h 14 V 150 h 10 V 230 h 14 V 150 h 24 V 230 h 14 V 150 h 10 V 230 h 14 V 150 h 24 V 230 h 14 V 150 h 24 V 230 h 14 V 150 h 24 V 230 h 14 V 150 h 10 V 230 h 14 V 150 h 10 V 230 h 14 V 150 h 10 V 230 h 14 V 150 h 10 V 230 h 14 V 150 h 10 V 230 h 14 V 150 h 24 V 230 h 14 V 150 h 10 V 230 h 14 V 150 h 24 V 230 h 14 V 150 h 10 V 230 h 14 V 150 h 24 V 230 h 14 V 150 h 10 V 230 h 14 V 150 h 24 V 230 h 14 V 150 h 10 V 230 h 14 V 150 h 10 V 230 h 14 V 150 h 24 V 230 h 14 V 150 h 24 V 150 h 40" fill="none" stroke="black" stroke-width="1.5" stroke-linejoin="miter"/>
<line x1="100" y1="116" x2="100" y2="122" stroke="#333" stroke-width="0.6"/>
<line x1="210" y1="116" x2="210" y2="122" stroke="#333" stroke-width="0.6"/>
<line x1="100" y1="119" x2="210" y2="119" stroke="#333" stroke-width="0.6"/>
<text x="155.0" y="102" text-anchor="middle" font-size="12" fill="#222">Старт MCU</text>
<text x="155.0" y="87" text-anchor="middle" font-size="12" fill="#222">≥ 18 мс</text>
<line x1="210" y1="116" x2="210" y2="122" stroke="#333" stroke-width="0.6"/>
<line x1="264" y1="116" x2="264" y2="122" stroke="#333" stroke-width="0.6"/>
<line x1="210" y1="119" x2="264" y2="119" stroke="#333" stroke-width="0.6"/>
<text x="237.0" y="102" text-anchor="middle" font-size="12" fill="#222">43 мкс</text>
<line x1="264" y1="116" x2="264" y2="122" stroke="#333" stroke-width="0.6"/>
<line x1="318" y1="116" x2="318" y2="122" stroke="#333" stroke-width="0.6"/>
<line x1="264" y1="119" x2="318" y2="119" stroke="#333" stroke-width="0.6"/>
<text x="291.0" y="102" text-anchor="middle" font-size="12" fill="#222">47 мкс</text>
<line x1="318" y1="116" x2="318" y2="122" stroke="#333" stroke-width="0.6"/>
<line x1="390" y1="116" x2="390" y2="122" stroke="#333" stroke-width="0.6"/>
<line x1="318" y1="119" x2="390" y2="119" stroke="#333" stroke-width="0.6"/>
<text x="354.0" y="102" text-anchor="middle" font-size="12" fill="#222">90 мкс</text>
<line x1="390" y1="116" x2="390" y2="122" stroke="#333" stroke-width="0.6"/>
<line x1="1560" y1="116" x2="1560" y2="122" stroke="#333" stroke-width="0.6"/>
<line x1="390" y1="119" x2="1560" y2="119" stroke="#333" stroke-width="0.6"/>
<text x="975.0" y="102" text-anchor="middle" font-size="12" fill="#222">40 бит данных</text>
<text x="975.0" y="87" text-anchor="middle" font-size="12" fill="#222">(3,9 мс)</text>
<line x1="210" y1="74" x2="390" y2="74" stroke="#333" stroke-width="0.6"/>
<line x1="210" y1="74" x2="210" y2="79" stroke="#333" stroke-width="0.6"/>
<line x1="390" y1="74" x2="390" y2="79" stroke="#333" stroke-width="0.6"/>
<text x="300.0" y="70" text-anchor="middle" font-size="12" fill="#222">Отклик датчика</text>
<text x="402.0" y="250" text-anchor="middle" font-size="11" font-family="monospace" fill="#111">0</text>
<line x1="390" y1="230" x2="390" y2="240" stroke="#ccc" stroke-width="0.4"/>
<text x="426.0" y="250" text-anchor="middle" font-size="11" font-family="monospace" fill="#111">0</text>
<line x1="414" y1="230" x2="414" y2="240" stroke="#ccc" stroke-width="0.4"/>
<text x="457.0" y="250" text-anchor="middle" font-size="11" font-family="monospace" fill="#111">1</text>
<line x1="438" y1="230" x2="438" y2="240" stroke="#ccc" stroke-width="0.4"/>
<text x="495.0" y="250" text-anchor="middle" font-size="11" font-family="monospace" fill="#111">1</text>
<line x1="476" y1="230" x2="476" y2="240" stroke="#ccc" stroke-width="0.4"/>
<text x="526.0" y="250" text-anchor="middle" font-size="11" font-family="monospace" fill="#111">0</text>
<line x1="514" y1="230" x2="514" y2="240" stroke="#ccc" stroke-width="0.4"/>
<text x="557.0" y="250" text-anchor="middle" font-size="11" font-family="monospace" fill="#111">1</text>
<line x1="538" y1="230" x2="538" y2="240" stroke="#ccc" stroke-width="0.4"/>
<text x="595.0" y="250" text-anchor="middle" font-size="11" font-family="monospace" fill="#111">1</text>
<line x1="576" y1="230" x2="576" y2="240" stroke="#ccc" stroke-width="0.4"/>
<text x="633.0" y="250" text-anchor="middle" font-size="11" font-family="monospace" fill="#111">1</text>
<line x1="614" y1="230" x2="614" y2="240" stroke="#ccc" stroke-width="0.4"/>
<text x="664.0" y="250" text-anchor="middle" font-size="11" font-family="monospace" fill="#111">0</text>
<line x1="652" y1="230" x2="652" y2="240" stroke="#ccc" stroke-width="0.4"/>
<text x="688.0" y="250" text-anchor="middle" font-size="11" font-family="monospace" fill="#111">0</text>
<line x1="676" y1="230" x2="676" y2="240" stroke="#ccc" stroke-width="0.4"/>
<text x="712.0" y="250" text-anchor="middle" font-size="11" font-family="monospace" fill="#111">0</text>
<line x1="700" y1="230" x2="700" y2="240" stroke="#ccc" stroke-width="0.4"/>
<text x="736.0" y="250" text-anchor="middle" font-size="11" font-family="monospace" fill="#111">0</text>
<line x1="724" y1="230" x2="724" y2="240" stroke="#ccc" stroke-width="0.4"/>
<text x="760.0" y="250" text-anchor="middle" font-size="11" font-family="monospace" fill="#111">0</text>
<line x1="748" y1="230" x2="748" y2="240" stroke="#ccc" stroke-width="0.4"/>
<text x="784.0" y="250" text-anchor="middle" font-size="11" font-family="monospace" fill="#111">0</text>
<line x1="772" y1="230" x2="772" y2="240" stroke="#ccc" stroke-width="0.4"/>
<text x="808.0" y="250" text-anchor="middle" font-size="11" font-family="monospace" fill="#111">0</text>
<line x1="796" y1="230" x2="796" y2="240" stroke="#ccc" stroke-width="0.4"/>
<text x="832.0" y="250" text-anchor="middle" font-size="11" font-family="monospace" fill="#111">0</text>
<line x1="820" y1="230" x2="820" y2="240" stroke="#ccc" stroke-width="0.4"/>
<text x="856.0" y="250" text-anchor="middle" font-size="11" font-family="monospace" fill="#111">0</text>
<line x1="844" y1="230" x2="844" y2="240" stroke="#ccc" stroke-width="0.4"/>
<text x="880.0" y="250" text-anchor="middle" font-size="11" font-family="monospace" fill="#111">0</text>
<line x1="868" y1="230" x2="868" y2="240" stroke="#ccc" stroke-width="0.4"/>
<text x="904.0" y="250" text-anchor="middle" font-size="11" font-family="monospace" fill="#111">0</text>
<line x1="892" y1="230" x2="892" y2="240" stroke="#ccc" stroke-width="0.4"/>
<text x="935.0" y="250" text-anchor="middle" font-size="11" font-family="monospace" fill="#111">1</text>
<line x1="916" y1="230" x2="916" y2="240" stroke="#ccc" stroke-width="0.4"/>
<text x="966.0" y="250" text-anchor="middle" font-size="11" font-family="monospace" fill="#111">0</text>
<line x1="954" y1="230" x2="954" y2="240" stroke="#ccc" stroke-width="0.4"/>
<text x="997.0" y="250" text-anchor="middle" font-size="11" font-family="monospace" fill="#111">1</text>
<line x1="978" y1="230" x2="978" y2="240" stroke="#ccc" stroke-width="0.4"/>
<text x="1035.0" y="250" text-anchor="middle" font-size="11" font-family="monospace" fill="#111">1</text>
<line x1="1016" y1="230" x2="1016" y2="240" stroke="#ccc" stroke-width="0.4"/>
<text x="1073.0" y="250" text-anchor="middle" font-size="11" font-family="monospace" fill="#111">1</text>
<line x1="1054" y1="230" x2="1054" y2="240" stroke="#ccc" stroke-width="0.4"/>
<text x="1104.0" y="250" text-anchor="middle" font-size="11" font-family="monospace" fill="#111">0</text>
<line x1="1092" y1="230" x2="1092" y2="240" stroke="#ccc" stroke-width="0.4"/>
<text x="1128.0" y="250" text-anchor="middle" font-size="11" font-family="monospace" fill="#111">0</text>
<line x1="1116" y1="230" x2="1116" y2="240" stroke="#ccc" stroke-width="0.4"/>
<text x="1152.0" y="250" text-anchor="middle" font-size="11" font-family="monospace" fill="#111">0</text>
<line x1="1140" y1="230" x2="1140" y2="240" stroke="#ccc" stroke-width="0.4"/>
<text x="1176.0" y="250" text-anchor="middle" font-size="11" font-family="monospace" fill="#111">0</text>
<line x1="1164" y1="230" x2="1164" y2="240" stroke="#ccc" stroke-width="0.4"/>
<text x="1200.0" y="250" text-anchor="middle" font-size="11" font-family="monospace" fill="#111">0</text>
<line x1="1188" y1="230" x2="1188" y2="240" stroke="#ccc" stroke-width="0.4"/>
<text x="1231.0" y="250" text-anchor="middle" font-size="11" font-family="monospace" fill="#111">1</text>
<line x1="1212" y1="230" x2="1212" y2="240" stroke="#ccc" stroke-width="0.4"/>
<text x="1262.0" y="250" text-anchor="middle" font-size="11" font-family="monospace" fill="#111">0</text>
<line x1="1250" y1="230" x2="1250" y2="240" stroke="#ccc" stroke-width="0.4"/>
<text x="1293.0" y="250" text-anchor="middle" font-size="11" font-family="monospace" fill="#111">1</text>
<line x1="1274" y1="230" x2="1274" y2="240" stroke="#ccc" stroke-width="0.4"/>
<text x="1324.0" y="250" text-anchor="middle" font-size="11" font-family="monospace" fill="#111">0</text>
<line x1="1312" y1="230" x2="1312" y2="240" stroke="#ccc" stroke-width="0.4"/>
<text x="1355.0" y="250" text-anchor="middle" font-size="11" font-family="monospace" fill="#111">1</text>
<line x1="1336" y1="230" x2="1336" y2="240" stroke="#ccc" stroke-width="0.4"/>
<text x="1386.0" y="250" text-anchor="middle" font-size="11" font-family="monospace" fill="#111">0</text>
<line x1="1374" y1="230" x2="1374" y2="240" stroke="#ccc" stroke-width="0.4"/>
<text x="1417.0" y="250" text-anchor="middle" font-size="11" font-family="monospace" fill="#111">1</text>
<line x1="1398" y1="230" x2="1398" y2="240" stroke="#ccc" stroke-width="0.4"/>
<text x="1448.0" y="250" text-anchor="middle" font-size="11" font-family="monospace" fill="#111">0</text>
<line x1="1436" y1="230" x2="1436" y2="240" stroke="#ccc" stroke-width="0.4"/>
<text x="1472.0" y="250" text-anchor="middle" font-size="11" font-family="monospace" fill="#111">0</text>
<line x1="1460" y1="230" x2="1460" y2="240" stroke="#ccc" stroke-width="0.4"/>
<text x="1503.0" y="250" text-anchor="middle" font-size="11" font-family="monospace" fill="#111">1</text>
<line x1="1484" y1="230" x2="1484" y2="240" stroke="#ccc" stroke-width="0.4"/>
<text x="1541.0" y="250" text-anchor="middle" font-size="11" font-family="monospace" fill="#111">1</text>
<line x1="1522" y1="230" x2="1522" y2="240" stroke="#ccc" stroke-width="0.4"/>
<line x1="1560" y1="230" x2="1560" y2="240" stroke="#ccc" stroke-width="0.4"/>
<rect x="390" y="268" width="262" height="38" rx="3" fill="#e8eef7" stroke="#2a5aa0" stroke-width="0.4"/>
<text x="521.0" y="286" text-anchor="middle" font-size="11" fill="#2a5aa0">RH int</text>
<text x="521.0" y="303" text-anchor="middle" font-size="12" font-family="monospace" font-weight="600" fill="#111">0x37</text>
<rect x="652" y="268" width="192" height="38" rx="3" fill="#e8eef7" stroke="#2a5aa0" stroke-width="0.4"/>
<text x="748.0" y="286" text-anchor="middle" font-size="11" fill="#2a5aa0">RH dec</text>
<text x="748.0" y="303" text-anchor="middle" font-size="12" font-family="monospace" font-weight="600" fill="#111">0x00</text>
<rect x="844" y="268" width="248" height="38" rx="3" fill="#f7ece4" stroke="#a65626" stroke-width="0.4"/>
<text x="968.0" y="286" text-anchor="middle" font-size="11" fill="#a65626">T int</text>
<text x="968.0" y="303" text-anchor="middle" font-size="12" font-family="monospace" font-weight="600" fill="#111">0x17</text>
<rect x="1092" y="268" width="220" height="38" rx="3" fill="#f7ece4" stroke="#a65626" stroke-width="0.4"/>
<text x="1202.0" y="286" text-anchor="middle" font-size="11" fill="#a65626">T dec</text>
<text x="1202.0" y="303" text-anchor="middle" font-size="12" font-family="monospace" font-weight="600" fill="#111">0x05</text>
<rect x="1312" y="268" width="248" height="38" rx="3" fill="#ebebeb" stroke="#555555" stroke-width="0.4"/>
<text x="1436.0" y="286" text-anchor="middle" font-size="11" fill="#555555">CRC</text>
<text x="1436.0" y="303" text-anchor="middle" font-size="12" font-family="monospace" font-weight="600" fill="#111">0x53</text>
<text x="845.0" y="340" text-anchor="middle" font-size="14" font-weight="600" fill="#111">Передача значения RH = 55 %, T = 23,5 °C</text>
<text x="845.0" y="360" text-anchor="middle" font-size="12" fill="#444">Байты: 0x37 0x00 0x17 0x05 0x53 &#160;&#160;·&#160;&#160; Проверка CRC: 55 + 0 + 23 + 5 = 83 = 0x53 ✓</text>
<text x="845.0" y="378" text-anchor="middle" font-size="11" fill="#666">Старт-импульс показан с разрывом (не в масштабе); ширина HIGH-сегмента визуально кодирует значение бита</text>
</svg>